<svg id="visual" viewBox="0 0 900 600" width="900" height="600" xmlns="http://www.w3.org/2000/svg" xmlns:xlink="http://www.w3.org/1999/xlink" version="1.1"><rect x="0" y="0" width="900" height="600" fill="#000037"></rect><g fill="#000096"><circle r="41" cx="510" cy="24"></circle><circle r="41" cx="257" cy="239"></circle><circle r="40" cx="640" cy="338"></circle><circle r="40" cx="498" cy="119"></circle><circle r="40" cx="376" cy="528"></circle><circle r="40" cx="358" cy="286"></circle><circle r="40" cx="464" cy="541"></circle><circle r="40" cx="872" cy="392"></circle><circle r="40" cx="154" cy="186"></circle><circle r="40" cx="139" cy="384"></circle><circle r="40" cx="837" cy="504"></circle><circle r="40" cx="615" cy="35"></circle><circle r="40" cx="699" cy="520"></circle><circle r="40" cx="823" cy="116"></circle><circle r="40" cx="41" cy="563"></circle><circle r="40" cx="351" cy="412"></circle><circle r="40" cx="378" cy="23"></circle><circle r="40" cx="586" cy="125"></circle><circle r="40" cx="497" cy="231"></circle><circle r="40" cx="721" cy="273"></circle><circle r="40" cx="88" cy="246"></circle><circle r="40" cx="526" cy="405"></circle><circle r="40" cx="107" cy="512"></circle><circle r="40" cx="338" cy="125"></circle><circle r="40" cx="185" cy="39"></circle><circle r="40" cx="600" cy="457"></circle><circle r="40" cx="48" cy="57"></circle><circle r="40" cx="225" cy="520"></circle><circle r="40" cx="14" cy="199"></circle><circle r="40" cx="744" cy="425"></circle><circle r="40" cx="798" cy="235"></circle><circle r="40" cx="350" cy="206"></circle><circle r="40" cx="216" cy="345"></circle><circle r="40" cx="898" cy="26"></circle><circle r="40" cx="898" cy="560"></circle><circle r="40" cx="808" cy="338"></circle><circle r="40" cx="749" cy="596"></circle><circle r="40" cx="782" cy="17"></circle><circle r="40" cx="429" cy="439"></circle><circle r="40" cx="707" cy="140"></circle><circle r="40" cx="449" cy="353"></circle><circle r="40" cx="601" cy="563"></circle><circle r="40" cx="621" cy="259"></circle><circle r="40" cx="44" cy="421"></circle><circle r="40" cx="214" cy="132"></circle><circle r="40" cx="267" cy="594"></circle><circle r="40" cx="104" cy="119"></circle><circle r="40" cx="212" cy="432"></circle><circle r="40" cx="7" cy="306"></circle><circle r="40" cx="876" cy="279"></circle><circle r="40" cx="521" cy="311"></circle><circle r="40" cx="144" cy="593"></circle><circle r="40" cx="878" cy="196"></circle><circle r="40" cx="293" cy="6"></circle><circle r="40" cx="416" cy="97"></circle><circle r="40" cx="293" cy="469"></circle><circle r="40" cx="169" cy="278"></circle><circle r="40" cx="703" cy="42"></circle><circle r="40" cx="427" cy="181"></circle></g></svg>